<svg width="16" height="16" viewBox="0 0 16 16" fill="none" xmlns="http://www.w3.org/2000/svg">
<path fill-rule="evenodd" clip-rule="evenodd" d="M9.5943 6.25211L7.99976 1L6.40522 6.25211H0.999756L5.37286 9.65247L3.74936 15L7.99976 11.695L12.2502 15L10.6266 9.65247L14.9998 6.25211H9.5943ZM2.34779 6.72168H6.7202L7.99976 2.50706L7.99977 2.50708L6.72021 6.7217H2.34781L2.34779 6.72168ZM5.88514 9.4722L4.57824 13.7769L4.57827 13.7769L5.88516 9.47221L5.88514 9.4722ZM13.6517 6.7217L13.6517 6.72168H9.27931L9.27933 6.7217H13.6517ZM4.90089 7.6229H7.26823L7.99977 5.21332L8.73132 7.6229H11.0987L9.18344 9.1121L9.91499 11.5217L7.99977 10.0325L6.08456 11.5217L6.81611 9.1121L4.90089 7.6229Z" fill="#424242"/>
</svg>
